<?xml version="1.0" encoding="UTF-8" standalone="no"?>
<!-- Created with Inkscape (http://www.inkscape.org/) -->

<svg
   width="15.000002mm"
   height="15.000018mm"
   viewBox="0 0 15.000002 15.000018"
   version="1.1"
   id="svg3002"
   inkscape:version="1.2.1 (9c6d41e410, 2022-07-14, custom)"
   xmlns:inkscape="http://www.inkscape.org/namespaces/inkscape"
   xmlns:sodipodi="http://sodipodi.sourceforge.net/DTD/sodipodi-0.dtd"
   xmlns="http://www.w3.org/2000/svg"
   xmlns:svg="http://www.w3.org/2000/svg">
  <sodipodi:namedview
     id="namedview3004"
     pagecolor="#ffffff"
     bordercolor="#666666"
     borderopacity="1.0"
     inkscape:showpageshadow="2"
     inkscape:pageopacity="0.0"
     inkscape:pagecheckerboard="0"
     inkscape:deskcolor="#d1d1d1"
     inkscape:document-units="mm"
     showgrid="false"
     inkscape:zoom="14.638496"
     inkscape:cx="4.7477555"
     inkscape:cy="11.818154"
     inkscape:current-layer="layer1" />
  <defs
     id="defs2999" />
  <g
     inkscape:label="Ebene 1"
     inkscape:groupmode="layer"
     id="layer1"
     transform="translate(-104.4172,-52.941084)">
    <path
       id="path2871"
       style="color:#000000;fill:#000000;stroke-width:0.264583;stroke-linejoin:round"
       d="m 111.91723,52.941091 a 0.21430102,0.21430102 0 0 0 -0.18387,0.104349 l -0.38112,0.635306 c -0.0669,0.0056 -0.13371,0.01148 -0.20005,0.01897 l -0.49748,-0.548254 a 0.21430102,0.21430102 0 0 0 -0.36076,0.07171 l -0.24999,0.697524 c -0.0645,0.01857 -0.12883,0.03733 -0.19252,0.05776 L 109.25687,53.5379 a 0.21430102,0.21430102 0 0 0 -0.33983,0.140621 l -0.10937,0.735191 c -0.0587,0.03044 -0.11724,0.06111 -0.17494,0.09319 l -0.67158,-0.317234 a 0.21430102,0.21430102 0 0 0 -0.30579,0.204235 l 0.0365,0.744678 c -0.0508,0.04059 -0.10132,0.0816 -0.15094,0.123601 l -0.72319,-0.180799 a 0.21430102,0.21430102 0 0 0 -0.26004,0.260037 l 0.1808,0.723194 c -0.0421,0.04968 -0.0832,0.100057 -0.12389,0.150945 l -0.74467,-0.03627 a 0.21430102,0.21430102 0 0 0 -0.20424,0.305794 l 0.31724,0.671577 c -0.032,0.05759 -0.0625,0.11607 -0.0929,0.174661 l -0.73519,0.10965 a 0.21430102,0.21430102 0 0 0 -0.1409,0.339835 l 0.44083,0.59457 c -0.0204,0.06366 -0.0392,0.12806 -0.0578,0.192516 l -0.69752,0.249983 a 0.21430102,0.21430102 0 0 0 -0.0717,0.36076 l 0.54826,0.497475 c -0.007,0.06627 -0.0134,0.13294 -0.019,0.199771 l -0.63559,0.381406 a 0.21430102,0.21430102 0 0 0 0,0.367735 l 0.63559,0.381407 c 0.006,0.06683 0.0115,0.133497 0.019,0.199771 l -0.54826,0.497196 a 0.21430102,0.21430102 0 0 0 0.0717,0.360759 l 0.69753,0.249993 c 0.0186,0.06446 0.0373,0.128856 0.0578,0.192517 l -0.44084,0.59457 a 0.21430102,0.21430102 0 0 0 0.1409,0.339834 l 0.7352,0.109651 c 0.0304,0.05859 0.0609,0.117076 0.0929,0.17466 l -0.31724,0.671577 a 0.21430102,0.21430102 0 0 0 0.20424,0.305795 l 0.74467,-0.03627 c 0.0406,0.05089 0.0818,0.101262 0.12388,0.150944 l -0.18079,0.723194 a 0.21430102,0.21430102 0 0 0 0.26003,0.260037 l 0.7232,-0.180798 c 0.0496,0.042 0.10012,0.08301 0.15094,0.123601 l -0.0365,0.744678 a 0.21430102,0.21430102 0 0 0 0.3058,0.204235 l 0.67157,-0.317237 c 0.0577,0.03208 0.11622,0.06276 0.17493,0.09319 l 0.10938,0.735191 a 0.21430102,0.21430102 0 0 0 0.33983,0.140621 l 0.59457,-0.440557 c 0.0637,0.02043 0.12804,0.03918 0.19252,0.05776 l 0.24999,0.697525 a 0.21430102,0.21430102 0 0 0 0.36076,0.07171 l 0.49747,-0.548254 c 0.0662,0.0075 0.13297,0.01342 0.19978,0.01897 l 0.3814,0.635585 a 0.21430102,0.21430102 0 0 0 0.36774,0 l 0.3814,-0.635585 c 0.0668,-0.0056 0.1335,-0.01149 0.19977,-0.01897 l 0.49748,0.548254 a 0.21430102,0.21430102 0 0 0 0.36048,-0.07171 l 0.24999,-0.697525 c 0.0646,-0.01859 0.12903,-0.0373 0.1928,-0.05776 l 0.59457,0.440557 a 0.21430102,0.21430102 0 0 0 0.33956,-0.14062 l 0.10965,-0.734912 c 0.0588,-0.03045 0.1172,-0.06137 0.17494,-0.09347 l 0.67129,0.317235 a 0.21430102,0.21430102 0 0 0 0.3058,-0.204235 l -0.0363,-0.744678 c 0.0508,-0.04056 0.10108,-0.08163 0.15066,-0.123601 l 0.72348,0.180799 a 0.21430102,0.21430102 0 0 0 0.26003,-0.260038 l -0.1808,-0.723194 c 0.0421,-0.04968 0.0833,-0.100053 0.12389,-0.150944 l 0.74439,0.03627 a 0.21430102,0.21430102 0 0 0 0.20452,-0.305795 l -0.31724,-0.671576 c 0.032,-0.05759 0.0625,-0.11607 0.0929,-0.174661 l 0.7352,-0.109651 a 0.21430102,0.21430102 0 0 0 0.14062,-0.339834 l -0.44056,-0.59457 c 0.0204,-0.06367 0.0392,-0.12805 0.0578,-0.192517 l 0.69752,-0.249992 a 0.21430102,0.21430102 0 0 0 0.0717,-0.36076 l -0.54825,-0.497197 c 0.007,-0.06627 0.0134,-0.13294 0.019,-0.199771 l 0.63558,-0.381406 a 0.21430102,0.21430102 0 0 0 0,-0.367735 l -0.63558,-0.381407 c -0.005,-0.06683 -0.0115,-0.133496 -0.019,-0.199771 l 0.54825,-0.497474 a 0.21430102,0.21430102 0 0 0 -0.0717,-0.36076 l -0.69753,-0.249993 c -0.0186,-0.06447 -0.0373,-0.128845 -0.0578,-0.192517 l 0.44056,-0.59457 a 0.21430102,0.21430102 0 0 0 -0.14062,-0.339834 l -0.73519,-0.109651 c -0.0304,-0.05859 -0.0609,-0.117076 -0.0929,-0.17466 l 0.31723,-0.671577 a 0.21430102,0.21430102 0 0 0 -0.20452,-0.305792 l -0.7444,0.03627 c -0.0406,-0.05089 -0.0818,-0.101259 -0.12388,-0.150944 l 0.1808,-0.723194 a 0.21430102,0.21430102 0 0 0 -0.26003,-0.260036 l -0.72348,0.180799 c -0.0496,-0.04197 -0.0999,-0.08304 -0.15066,-0.123601 l 0.0363,-0.744678 a 0.21430102,0.21430102 0 0 0 -0.3058,-0.204235 l -0.6713,0.317234 c -0.0577,-0.0321 -0.11618,-0.06302 -0.17494,-0.09347 l -0.10964,-0.73491 a 0.21430102,0.21430102 0 0 0 -0.33956,-0.140621 l -0.59457,0.440556 c -0.0638,-0.02045 -0.12823,-0.03916 -0.1928,-0.05776 l -0.24999,-0.697524 a 0.21430102,0.21430102 0 0 0 -0.36048,-0.07171 l -0.49747,0.548254 c -0.0664,-0.0075 -0.13313,-0.01342 -0.20005,-0.01897 l -0.38113,-0.635306 a 0.21430102,0.21430102 0 0 0 -0.18387,-0.104349 z m 0,1.357382 a 0.42855918,0.42855918 0 0 1 0.42856,0.42856 0.42855918,0.42855918 0 0 1 -0.42856,0.428559 0.42855918,0.42855918 0 0 1 -0.42856,-0.428559 0.42855918,0.42855918 0 0 1 0.42856,-0.42856 z m -1.01225,0.736587 0.70925,0.709243 a 0.42860204,0.42860204 0 0 0 0.60601,0 l 0.70924,-0.709243 c 1.65168,0.305544 3.04105,1.344144 3.81825,2.768894 l -0.4573,0.897575 a 0.42860204,0.42860204 0 0 0 0.1875,0.576155 l 0.89255,0.454786 c 0.0297,0.232128 0.0466,0.468281 0.0466,0.708685 0,0.144419 -0.007,0.287012 -0.0178,0.42856 h -0.55356 a 0.07143358,0.07143358 0 0 0 -0.0717,0.07171 v 0.285706 c 0,0.272312 -0.0752,0.457803 -0.18442,0.578946 -0.10923,0.121142 -0.25484,0.180819 -0.40819,0.188889 -0.3067,0.01614 -0.63038,-0.179295 -0.6939,-0.496916 -0.0743,-0.371498 -0.25883,-0.700275 -0.44279,-0.939427 -0.092,-0.119574 -0.18403,-0.216828 -0.26478,-0.285706 -0.0295,-0.02513 -0.0555,-0.04269 -0.082,-0.06027 0.47373,-0.279786 0.79085,-0.614777 0.93943,-0.976534 0.16122,-0.392552 0.14695,-0.805075 0.007,-1.176864 -0.27885,-0.74358 -1.05277,-1.33283 -1.94163,-1.33283 h -5.84359 c 0.78851,-0.860819 1.84718,-1.4697 3.0454,-1.691358 z m -4.41589,3.211682 a 0.42855918,0.42855918 0 0 1 0.12612,0.02093 0.42855918,0.42855918 0 0 1 0.2751,0.539884 0.42855918,0.42855918 0 0 1 -0.53988,0.275382 0.42855918,0.42855918 0 0 1 -0.27539,-0.540163 0.42855918,0.42855918 0 0 1 0.41405,-0.29603 z m 10.856,0 a 0.42855918,0.42855918 0 0 1 0.41405,0.29603 0.42855918,0.42855918 0 0 1 -0.2751,0.540163 0.42855918,0.42855918 0 0 1 -0.53989,-0.275382 0.42855918,0.42855918 0 0 1 0.27511,-0.539885 0.42855918,0.42855918 0 0 1 0.12583,-0.02093 z m -9.93387,0.19447 h 0.93496 v 3.571606 h -1.70196 c -0.14757,-0.497587 -0.22683,-1.025083 -0.22683,-1.571663 0,-0.240404 0.0169,-0.476557 0.0466,-0.708685 l 0.89255,-0.454786 a 0.42860204,0.42860204 0 0 0 0.18722,-0.576155 z m 3.36374,0 h 1.78511 c 0.2738,0 0.47253,0.06863 0.60015,0.164337 0.12762,0.09571 0.18554,0.216326 0.18554,0.33537 0,0.119044 -0.0579,0.239659 -0.18554,0.33537 -0.12762,0.09571 -0.32635,0.164616 -0.60015,0.164616 h -1.7851 z m 0,2.570798 h 1.35599 c 0.37228,0 0.58405,0.151863 0.73519,0.391171 0.15114,0.23931 0.23127,0.572031 0.30245,0.910131 0.0712,0.338101 0.13286,0.680641 0.26478,0.949192 0.13192,0.268549 0.35153,0.463993 0.69808,0.463993 h 2.19804 c -0.12838,0.172283 -0.26539,0.337714 -0.41265,0.493568 L 114.923,64.062704 a 0.42860204,0.42860204 0 0 0 -0.0513,-0.005 0.42860204,0.42860204 0 0 0 -0.43888,0.361318 l -0.15764,0.994391 c -0.7141,0.338054 -1.51312,0.527607 -2.35791,0.527607 -0.84479,0 -1.64381,-0.189553 -2.35791,-0.527607 l -0.15764,-0.994391 a 0.42860204,0.42860204 0 0 0 -0.43889,-0.361318 0.42860204,0.42860204 0 0 0 -0.0516,0.005 l -0.99355,0.157361 c -0.14726,-0.155854 -0.28427,-0.321285 -0.41265,-0.493568 h 4.48369 a 0.07143358,0.07143358 0 0 0 0.0717,-0.07087 v -1.57222 a 0.07143358,0.07143358 0 0 0 -0.0717,-0.07059 h -1.21369 z m -2.20362,3.623501 a 0.42855918,0.42855918 0 0 1 0.23912,0.08175 0.42855918,0.42855918 0 0 1 0.0949,0.598476 0.42855918,0.42855918 0 0 1 -0.59876,0.09486 0.42855918,0.42855918 0 0 1 -0.0949,-0.598755 0.42855918,0.42855918 0 0 1 0.35964,-0.176334 z m 6.69178,0 a 0.42855918,0.42855918 0 0 1 0.35936,0.176334 0.42855918,0.42855918 0 0 1 -0.0949,0.598755 0.42855918,0.42855918 0 0 1 -0.59847,-0.09486 0.42855918,0.42855918 0 0 1 0.0949,-0.598476 0.42855918,0.42855918 0 0 1 0.23911,-0.08175 z" />
  </g>
</svg>
