<?xml version="1.0" encoding="UTF-8" standalone="no"?>
<!-- Created with Inkscape (http://www.inkscape.org/) -->

<svg
   width="10.82538mm"
   height="15mm"
   viewBox="0 0 10.82538 15"
   version="1.1"
   id="svg3174"
   inkscape:version="1.2.1 (9c6d41e410, 2022-07-14, custom)"
   sodipodi:docname="logo-e-g-15mm.svg"
   xmlns:inkscape="http://www.inkscape.org/namespaces/inkscape"
   xmlns:sodipodi="http://sodipodi.sourceforge.net/DTD/sodipodi-0.dtd"
   xmlns="http://www.w3.org/2000/svg"
   xmlns:svg="http://www.w3.org/2000/svg">
  <sodipodi:namedview
     id="namedview3176"
     pagecolor="#ffffff"
     bordercolor="#666666"
     borderopacity="1.0"
     inkscape:showpageshadow="2"
     inkscape:pageopacity="0.0"
     inkscape:pagecheckerboard="0"
     inkscape:deskcolor="#d1d1d1"
     inkscape:document-units="mm"
     showgrid="false"
     inkscape:zoom="14.638496"
     inkscape:cx="11.510745"
     inkscape:cy="28.349907"
     inkscape:current-layer="layer1" />
  <defs
     id="defs3171" />
  <g
     inkscape:label="Ebene 1"
     inkscape:groupmode="layer"
     id="layer1"
     transform="translate(-153.932,-120.03359)">
    <path
       id="path3328"
       style="fill:#000000;fill-opacity:1;stroke:none;stroke-width:0.750002;stroke-linecap:butt;stroke-linejoin:miter;stroke-miterlimit:4;stroke-dasharray:none;stroke-dashoffset:0;stroke-opacity:1"
       d="m 159.34473,120.03359 -5.41273,3.12501 v 6.25001 l 5.41273,3.12501 4.3301,-2.49998 v 1.24999 l -4.3301,2.49998 -5.41266,-3.12501 h -7e-5 v 1.24999 l 5.41272,3.125 5.41266,-3.125 v -8.74999 z m 0,1.24999 4.3301,2.50005 v 4.99995 l -4.3301,2.50005 -4.33017,-2.50005 v -4.99995 z m 0,1.25006 -3.24761,1.87495 v 3.75003 l 3.24761,1.87502 3.24754,-1.87502 h 7e-5 v -1.24999 l -3.24761,1.87495 -1.62381,-0.93747 4.87135,-2.81249 h 7e-5 v -0.62503 h -7e-5 z m 0,1.24999 1.62373,0.93747 -2.92443,1.68847 -0.86442,0.49906 v -1.87501 z" />
  </g>
</svg>
